<svg width="127" height="101" viewBox="0 0 127 101" fill="none" xmlns="http://www.w3.org/2000/svg">
<path d="M7.02288 87.6026C7.41168 87.2837 7.60671 86.8194 7.60671 86.2079C7.60671 85.5977 7.40856 85.1259 7.01288 84.7945C6.6172 84.463 6.05649 84.297 5.32951 84.297H2.74289V88.08H5.34951C6.07524 88.08 6.63345 87.9215 7.02288 87.6026ZM2.74289 82.3278H5.21324C5.90084 82.3278 6.42279 82.1749 6.77972 81.8698C7.13664 81.5647 7.31417 81.1255 7.31417 80.554C7.31417 79.982 7.13914 79.5391 6.78847 79.2277C6.43904 78.9163 5.90022 78.7603 5.17449 78.7603H2.74289V82.3278ZM9.65825 84.4047C10.1577 85.0225 10.4077 85.7468 10.4077 86.5788C10.4077 87.736 10.0214 88.6489 9.25007 89.3187C8.47871 89.9884 7.3598 90.3224 5.89397 90.3224H0V76.5561H5.77707C7.16477 76.5561 8.2318 76.8619 8.97753 77.4734C9.72264 78.0836 10.0964 78.942 10.0964 80.0466C10.0964 80.9049 9.87266 81.6066 9.4251 82.1523C8.97753 82.6987 8.39057 83.0564 7.66484 83.225C8.49371 83.3941 9.15881 83.7876 9.65825 84.4047Z" fill="#566E98"/>
<path d="M17.0218 83.0683H19.2778C20.8474 83.0683 21.6325 82.3729 21.6325 80.982C21.6325 80.3191 21.4406 79.8028 21.0586 79.4325C20.6748 79.0623 20.0822 78.8762 19.2778 78.8762H17.0218V83.0683ZM21.4381 90.3218L18.2282 84.9599H17.0218V90.3218H14.2789V76.5555H19.5122C21.1074 76.5555 22.3232 76.9452 23.1596 77.7252C23.9959 78.5053 24.4141 79.5328 24.4141 80.8059C24.4141 81.846 24.1259 82.7169 23.549 83.4186C22.972 84.1203 22.1388 84.5889 21.0493 84.8226L24.4729 90.3211H21.4387L21.4381 90.3218Z" fill="#566E98"/>
<path d="M35.8339 85.4667L33.8105 79.6568L31.7877 85.4667H35.8332H35.8339ZM36.5727 87.5531H31.0676L30.0949 90.3218H27.1964L32.2546 76.7115H35.3869L40.4258 90.3218H37.5266L36.5733 87.5531H36.5727Z" fill="#566E98"/>
<path d="M55.4817 90.3218H52.7388L46.5917 80.9626V90.3218H43.8488V76.5561H46.5917L52.7388 85.9936V76.5561H55.4817V90.3218Z" fill="#566E98"/>
<path d="M68.001 86.6954C68.8123 85.9153 69.2149 84.8233 69.2149 83.4192C69.2149 82.0026 68.8123 80.9043 68.001 80.1242C67.189 79.3442 66.0488 78.9539 64.5661 78.9539H62.6608V87.8657H64.5661C66.0488 87.8657 67.189 87.4754 68.001 86.6954ZM71.1402 87.0268C70.5701 88.0668 69.745 88.8763 68.6648 89.4546C67.5778 90.0329 66.2901 90.3218 64.8011 90.3218H59.9173V76.5555H64.8011C66.2907 76.5555 67.5784 76.8387 68.6648 77.4038C69.745 77.9696 70.5701 78.7684 71.1402 79.8022C71.7102 80.836 71.9984 82.0414 71.9984 83.4192C71.9984 84.7851 71.7102 85.9874 71.1402 87.0268Z" fill="#566E98"/>
<path d="M38.2898 0.000152588C38.2898 0.000152588 73.703 13.4012 72.9517 32.7937H72.9648V65.5879C72.9648 65.5879 37.5497 52.1863 38.3017 32.7937H38.2898V0.000152588Z" fill="#BED1E1"/>
<path d="M104.507 57.9147C111.068 53.3886 118.769 50.4539 126.999 49.6037V39.3354C122.236 41.1686 117.762 43.807 113.757 47.211C110.088 50.3286 106.989 53.9419 104.507 57.9147Z" fill="#BED1E1"/>
<path d="M100.482 61.0042C103.34 55.1993 107.378 49.9846 112.457 45.6722C116.837 41.9481 121.761 39.1011 127 37.1801V7.60129C127 7.60129 76.5672 26.6856 77.6342 54.3009H77.6205V101C77.6205 101 79.8677 100.148 83.4032 98.5476C83.39 97.0495 83.4369 95.5433 83.5644 94.0315C84.6577 80.7038 91.0511 69.0627 100.482 61.0042Z" fill="#BED1E1"/>
<path d="M95.6855 78.3549C95.9537 75.0781 96.5507 71.8803 97.4495 68.7939C91.5662 75.7548 87.7094 84.5432 86.9043 94.3078C86.8305 95.1981 86.7905 96.0859 86.7705 96.9718C89.6347 95.5884 92.9689 93.8698 96.4707 91.8461C95.5918 87.4635 95.3099 82.933 95.6855 78.3549Z" fill="#BED1E1"/>
<path d="M97.6914 78.5203C97.3495 82.6699 97.577 86.7756 98.3153 90.7616C112.094 82.4994 127.583 69.7331 126.979 54.3003H126.999V52.9858C116.97 54.0973 107.82 58.5375 100.784 65.2571C99.1204 69.4455 98.0734 73.9021 97.6914 78.5197V78.5203Z" fill="#BED1E1"/>
</svg>
