<svg width="127" height="101" viewBox="0 0 127 101" fill="none" xmlns="http://www.w3.org/2000/svg">
<path d="M7.02288 87.6026C7.41168 87.2837 7.60671 86.8194 7.60671 86.2079C7.60671 85.5977 7.40856 85.1259 7.01288 84.7945C6.6172 84.463 6.05649 84.297 5.32951 84.297H2.74289V88.08H5.34951C6.07524 88.08 6.63345 87.9215 7.02288 87.6026ZM2.74289 82.3278H5.21324C5.90084 82.3278 6.42279 82.1749 6.77972 81.8698C7.13664 81.5647 7.31417 81.1255 7.31417 80.5541C7.31417 79.9821 7.13914 79.5391 6.78847 79.2277C6.43904 78.9163 5.90022 78.7603 5.17449 78.7603H2.74289V82.3278ZM9.65825 84.4048C10.1577 85.0225 10.4077 85.7468 10.4077 86.5789C10.4077 87.7361 10.0214 88.6489 9.25007 89.3187C8.47871 89.9885 7.3598 90.3224 5.89397 90.3224H0V76.5562H5.77707C7.16477 76.5562 8.2318 76.8619 8.97753 77.4734C9.72264 78.0836 10.0964 78.942 10.0964 80.0466C10.0964 80.9049 9.87266 81.6067 9.4251 82.1524C8.97753 82.6987 8.39057 83.0565 7.66484 83.225C8.49371 83.3942 9.15881 83.7876 9.65825 84.4048Z" fill="white"/>
<path d="M17.0218 83.0683H19.2778C20.8474 83.0683 21.6325 82.3728 21.6325 80.9819C21.6325 80.319 21.4406 79.8028 21.0586 79.4325C20.6748 79.0622 20.0822 78.8761 19.2778 78.8761H17.0218V83.0683ZM21.4381 90.3217L18.2282 84.9598H17.0218V90.3217H14.2789V76.5554H19.5122C21.1074 76.5554 22.3232 76.9451 23.1596 77.7252C23.9959 78.5052 24.4141 79.5327 24.4141 80.8058C24.4141 81.8459 24.1259 82.7168 23.549 83.4185C22.972 84.1202 22.1388 84.5889 21.0493 84.8226L24.4729 90.3211H21.4387L21.4381 90.3217Z" fill="white"/>
<path d="M35.8339 85.4667L33.8105 79.6568L31.7877 85.4667H35.8332H35.8339ZM36.5727 87.553H31.0676L30.0949 90.3217H27.1964L32.2546 76.7114H35.3869L40.4258 90.3217H37.5266L36.5733 87.553H36.5727Z" fill="white"/>
<path d="M55.4817 90.3218H52.7388L46.5917 80.9626V90.3218H43.8488V76.5562H46.5917L52.7388 85.9937V76.5562H55.4817V90.3218Z" fill="white"/>
<path d="M68.001 86.6953C68.8123 85.9153 69.2149 84.8232 69.2149 83.4191C69.2149 82.0025 68.8123 80.9042 68.001 80.1242C67.189 79.3441 66.0488 78.9538 64.5661 78.9538H62.6608V87.8657H64.5661C66.0488 87.8657 67.189 87.4753 68.001 86.6953ZM71.1402 87.0267C70.5701 88.0668 69.745 88.8763 68.6648 89.4546C67.5778 90.0329 66.2901 90.3217 64.8011 90.3217H59.9173V76.5554H64.8011C66.2907 76.5554 67.5784 76.8386 68.6648 77.4038C69.745 77.9695 70.5701 78.7683 71.1402 79.8021C71.7102 80.8359 71.9984 82.0414 71.9984 83.4191C71.9984 84.785 71.7102 85.9873 71.1402 87.0267Z" fill="white"/>
<path d="M38.2898 0.00012207C38.2898 0.00012207 73.703 13.4011 72.9517 32.7937H72.9648V65.5879C72.9648 65.5879 37.5497 52.1863 38.3017 32.7937H38.2898V0.00012207Z" fill="white"/>
<path d="M104.507 57.9148C111.068 53.3887 118.769 50.454 126.999 49.6038V39.3354C122.236 41.1687 117.762 43.807 113.757 47.211C110.088 50.3287 106.989 53.9419 104.507 57.9148Z" fill="white"/>
<path d="M100.482 61.0042C103.34 55.1993 107.378 49.9847 112.457 45.6722C116.837 41.9481 121.761 39.1011 127 37.1801V7.60132C127 7.60132 76.5672 26.6856 77.6342 54.3009H77.6205V101C77.6205 101 79.8677 100.148 83.4032 98.5476C83.39 97.0495 83.4369 95.5433 83.5644 94.0315C84.6577 80.7038 91.0511 69.0627 100.482 61.0042Z" fill="white"/>
<path d="M95.6855 78.3549C95.9537 75.0781 96.5507 71.8803 97.4495 68.7939C91.5662 75.7548 87.7094 84.5432 86.9043 94.3078C86.8305 95.1981 86.7905 96.0859 86.7705 96.9718C89.6347 95.5884 92.9689 93.8698 96.4707 91.8461C95.5918 87.4635 95.3099 82.933 95.6855 78.3549Z" fill="white"/>
<path d="M97.6914 78.5202C97.3495 82.6698 97.577 86.7755 98.3153 90.7615C112.094 82.4994 127.583 69.7331 126.979 54.3002H126.999V52.9857C116.97 54.0972 107.82 58.5375 100.784 65.2571C99.1204 69.4455 98.0734 73.902 97.6914 78.5196V78.5202Z" fill="white"/>
</svg>
