<svg width="20" height="20" viewBox="0 0 20 20" fill="none" xmlns="http://www.w3.org/2000/svg">
<path d="M0.400024 1.60002C0.400024 0.937288 0.937288 0.400024 1.60002 0.400024H4.18347C4.77008 0.400024 5.2707 0.824116 5.36715 1.40274L6.25432 6.72579C6.34092 7.24544 6.0785 7.76079 5.6073 7.99638L3.74954 8.92527C5.0891 12.254 7.74604 14.9109 11.0747 16.2505L12.0037 14.3927C12.2392 13.9215 12.7546 13.6591 13.2742 13.7457L18.5973 14.6329C19.1759 14.7293 19.6 15.23 19.6 15.8165V18.4C19.6 19.0628 19.0628 19.6 18.4 19.6H16C7.38438 19.6 0.400024 12.6157 0.400024 4.00002V1.60002Z" fill="#EBEDEE"/>
</svg>
