<svg width="20" height="20" viewBox="0 0 20 20" fill="none" xmlns="http://www.w3.org/2000/svg">
<path fill-rule="evenodd" clip-rule="evenodd" d="M7.60003 2.79999C4.94906 2.79999 2.80002 4.94903 2.80002 7.59999C2.80002 10.2509 4.94906 12.4 7.60003 12.4C10.2509 12.4 12.4 10.2509 12.4 7.59999C12.4 4.94903 10.2509 2.79999 7.60003 2.79999ZM0.400024 7.59999C0.400024 3.62354 3.62357 0.399994 7.60003 0.399994C11.5765 0.399994 14.8 3.62354 14.8 7.59999C14.8 9.15499 14.3071 10.5948 13.4689 11.7718L19.2485 17.5515C19.7171 18.0201 19.7171 18.7799 19.2485 19.2485C18.7799 19.7171 18.0201 19.7171 17.5515 19.2485L11.7718 13.4688C10.5949 14.307 9.15502 14.8 7.60003 14.8C3.62357 14.8 0.400024 11.5764 0.400024 7.59999Z" fill="#E1CEBE"/>
</svg>
